<?xml version="1.0" standalone="no"?>
<!DOCTYPE svg PUBLIC "-//W3C//DTD SVG 20010904//EN" "http://www.w3.org/TR/2001/REC-SVG-20010904/DTD/svg10.dtd">
<svg version="1.0" xmlns="http://www.w3.org/2000/svg" width="96.000000pt" height="96.000000pt"
    viewBox="0 0 96.000000 96.000000" preserveAspectRatio="xMidYMid meet">

    <g transform="translate(0.000000,96.000000) scale(0.100000,-0.100000)" fill="#dddddd" stroke="none">
        <path d="M44 948 c-12 -5 -27 -21 -33 -34 -15 -35 -15 -833 0 -867 6 -14 22
-30 36 -36 34 -15 832 -15 866 0 14 6 30 22 36 36 15 34 15 832 0 866 -6 14
-22 30 -36 36 -32 15 -839 14 -869 -1z m231 -143 c54 -53 16 -145 -60 -145
-49 0 -85 36 -85 85 0 49 36 85 85 85 25 0 44 -8 60 -25z m465 -210 c68 -35
80 -79 80 -286 l0 -169 -74 0 -75 0 -3 156 c-3 140 -5 157 -22 170 -28 20 -69
17 -97 -5 -23 -18 -24 -25 -27 -170 l-3 -151 -75 0 -74 0 0 230 0 230 70 0
c69 0 70 0 70 -27 l0 -27 29 28 c47 45 135 54 201 21z m-450 -225 l0 -230 -75
0 -75 0 0 230 0 230 75 0 75 0 0 -230z" />
    </g>
</svg>